<svg width="25" height="25" viewBox="0 0 25 25" fill="none" xmlns="http://www.w3.org/2000/svg">
<path d="M0.695323 23.5593C0.695323 23.5593 -0.236487 17.2834 5.35438 17.2834C6.84145 18.2726 8.11552 18.9562 9.54752 18.9533H9.48928C10.9213 18.9562 11.6828 17.9472 13.1699 16.958C20.4243 16.958 18.5278 23.5593 18.5278 23.5593" fill="#92D3F5"/>
<path d="M9.19997 22.0128L7.69095 20.185L6.18188 18.3572H9.19997H12.2181L10.709 20.185L9.19997 22.0128Z" fill="white"/>
<path d="M5.00353 17.0953C5.00353 17.0953 2.25455 18.9672 3.99671 20.5665H6.12725L5.73892 22.3061L9.4158 23.2137L9.55105 22.049L5.6558 17.2312" fill="#61B2E4"/>
<path d="M23.8991 16.3992L20.661 23.9999H9.01807L12.2561 16.3992H23.8991Z" fill="#D0CFCE"/>
<path d="M24 16.3992L20.762 23.9999H20.6595H16.5735L19.8115 16.3992H23.8975H24Z" fill="#9B9B9A"/>
<path d="M14.8553 4.6145C15.2761 6.01448 15.7016 7.85503 14.6284 8.54454C14.6284 8.54454 14.0237 6.13089 13.2449 5.69781" fill="black"/>
<path d="M5.71705 5.49769C8.2841 6.74585 11.6689 6.51792 13.5711 5.46529C13.947 5.25731 14.2831 4.99897 14.569 4.6882C15.9276 3.21124 14.6742 1.73845 14.6742 1.73845L13.4486 2.68225C9.33224 -1.42504 4.74922 1.01482 5.05798 3.34842C5.05798 3.34842 1.82227 5.03282 4.06313 8.67756L5.71705 5.49769Z" fill="black"/>
<path d="M13.5711 5.46527C11.6689 6.5179 8.28407 6.74583 5.71702 5.49768L4.06311 8.67754C4.02993 8.62361 4.00193 8.57159 3.97114 8.51855C3.96415 8.65713 3.95422 8.79478 3.95422 8.93554C3.95422 12.5745 6.31939 15.5244 9.23694 15.5244C12.1545 15.5244 14.5197 12.5745 14.5197 8.93554C14.5197 7.62905 14.2109 6.41465 13.685 5.39038C13.6458 5.41376 13.6113 5.44301 13.5711 5.46527Z" fill="#A57939"/>
<path d="M0.524727 23.6031C0.299042 23.6035 0.10066 23.4392 0.0652047 23.2095C0.046056 23.0842 -0.387981 20.1261 1.26771 18.2003C2.16359 17.1584 3.48122 16.6304 5.18466 16.6304C5.27659 16.6304 5.36669 16.6576 5.4431 16.7085C6.91681 17.6886 8.08748 18.2974 9.35917 18.3001H9.37781C9.6349 18.3001 9.8433 18.5081 9.84371 18.7645C9.84418 19.0211 9.63583 19.2294 9.37874 19.2299C9.37828 19.2299 9.37828 19.2299 9.37781 19.2299H9.37646C9.37147 19.2294 9.36462 19.2294 9.35871 19.2299H9.31957C9.31277 19.2299 9.3055 19.2299 9.29865 19.2294C7.855 19.2099 6.58876 18.5775 5.04638 17.5615C3.69689 17.5878 2.66542 18.0051 1.97793 18.8022C0.600716 20.3998 0.981966 23.042 0.986066 23.0688C1.02474 23.3221 0.850022 23.5591 0.595684 23.5981C0.572063 23.6017 0.548395 23.6031 0.524727 23.6031Z" fill="black"/>
<path d="M8.48208 21.9131C8.3451 21.9131 8.20999 21.8536 8.11807 21.7387L4.73345 17.5217C4.57239 17.3215 4.60468 17.0287 4.80581 16.8684C5.00736 16.7063 5.30037 16.7404 5.4605 16.9406L8.84516 21.1576C9.00622 21.3579 8.97393 21.6507 8.7728 21.8109C8.6868 21.8799 8.58397 21.9131 8.48208 21.9131Z" fill="black"/>
<path d="M8.02094 22.8764C7.98637 22.8764 7.95133 22.8728 7.91587 22.8646L5.6341 22.3407C5.50896 22.3121 5.40162 22.2331 5.33653 22.1223C5.27191 22.012 5.25555 21.8794 5.29147 21.7569L5.50486 21.0314H3.99658C3.87969 21.0314 3.76731 20.9874 3.68131 20.9088C3.02704 20.3082 2.92649 19.679 2.95743 19.2563C3.05662 17.8957 4.569 16.8284 4.74096 16.7113C4.953 16.5665 5.24237 16.6214 5.3875 16.833C5.53263 17.0445 5.47849 17.3337 5.26646 17.479C4.90156 17.7291 3.94203 18.5486 3.88649 19.3253C3.86692 19.6005 3.96611 19.8556 4.18952 20.1016H6.12731C6.27426 20.1016 6.41212 20.1707 6.50041 20.2878C6.58818 20.4053 6.61548 20.557 6.57453 20.6973L6.32523 21.5453L8.12516 21.9585C8.37586 22.0161 8.53236 22.2653 8.47459 22.5159C8.42497 22.7307 8.23297 22.8764 8.02094 22.8764Z" fill="black"/>
<path d="M9.01807 23.9999H20.661L23.8991 16.3992H12.2561L9.01807 23.9999Z" stroke="black" stroke-width="2" stroke-miterlimit="10" stroke-linecap="round" stroke-linejoin="round"/>
<path d="M3.90698 23.9999H9.01796" stroke="black" stroke-width="2" stroke-miterlimit="10" stroke-linecap="round" stroke-linejoin="round"/>
<path d="M12.1983 8.78461C12.1983 9.29807 11.7807 9.71437 11.2665 9.71437C10.7524 9.71437 10.3347 9.29807 10.3347 8.78461C10.3347 8.27162 10.7524 7.85486 11.2665 7.85486C11.7807 7.85486 12.1983 8.27162 12.1983 8.78461Z" fill="black"/>
<path d="M8.47116 8.78461C8.47116 9.29807 8.05348 9.71437 7.53935 9.71437C7.02523 9.71437 6.60754 9.29807 6.60754 8.78461C6.60754 8.27162 7.02523 7.85486 7.53935 7.85486C8.05348 7.85486 8.47116 8.27162 8.47116 8.78461Z" fill="black"/>
<path d="M9.40273 13.4346C8.8661 13.4346 8.32942 13.3016 7.79666 13.0358C7.56641 12.9209 7.47314 12.6417 7.58826 12.412C7.70315 12.1825 7.98251 12.0892 8.21341 12.2041C9.01374 12.6036 9.79176 12.6036 10.5921 12.2041C10.8225 12.0892 11.1021 12.1825 11.2172 12.412C11.3324 12.6417 11.2391 12.9209 11.0088 13.0358C10.4761 13.3016 9.9394 13.4346 9.40273 13.4346Z" fill="black"/>
<path d="M9.34593 16.4711C6.17605 16.4711 3.59717 13.3069 3.59717 9.41738C3.59717 9.1073 3.61357 8.797 3.64585 8.49511C3.67269 8.23998 3.90611 8.05454 4.15816 8.0822C4.41432 8.10921 4.59952 8.33826 4.57221 8.59361C4.54356 8.86306 4.52898 9.14022 4.52898 9.41738C4.52898 12.7943 6.68971 15.5414 9.34593 15.5414C12.0017 15.5414 14.1624 12.7943 14.1624 9.41738C14.1624 9.14431 14.1483 8.8685 14.1196 8.59747C14.0932 8.34211 14.2794 8.11353 14.535 8.08699C14.7925 8.05863 15.02 8.24612 15.0469 8.50124C15.0783 8.8043 15.0942 9.11232 15.0942 9.41738C15.0942 13.3069 12.5153 16.4711 9.34593 16.4711Z" fill="black"/>
<path d="M11.9645 11.3998H11.0291C10.3079 11.3998 9.68595 10.9694 9.40701 10.3525C9.12858 10.9694 8.50618 11.3998 7.78547 11.3998H6.85003C5.86953 11.3998 5.07195 10.604 5.07195 9.62567V9.05024H4.74935C4.4918 9.05024 4.28345 8.84207 4.28345 8.58536C4.28345 8.32861 4.4918 8.12048 4.74935 8.12048H5.53785C5.79536 8.12048 6.00376 8.32861 6.00376 8.58536V9.62567C6.00376 10.0914 6.38319 10.4701 6.85003 10.4701H7.78547C8.25184 10.4701 8.63128 10.0914 8.63128 9.62567V9.11244C8.63128 8.85569 8.83967 8.64756 9.09718 8.64756H9.71688C9.97439 8.64756 10.1828 8.85569 10.1828 9.11244V9.62567C10.1828 10.0914 10.5622 10.4701 11.0291 10.4701H11.9645C12.4309 10.4701 12.8103 10.0914 12.8103 9.62567V8.58536C12.8103 8.32861 13.0187 8.12048 13.2762 8.12048H13.8154C14.0729 8.12048 14.2813 8.32861 14.2813 8.58536C14.2813 8.84207 14.0729 9.05024 13.8154 9.05024H13.7421V9.62567C13.7421 10.604 12.9445 11.3998 11.9645 11.3998Z" fill="black"/>
<path d="M14.6285 9.00929C14.5707 9.00929 14.5125 8.99836 14.4569 8.97661C14.3173 8.92143 14.2131 8.80251 14.1767 8.65724C13.9087 7.58992 13.3896 6.31011 13.0183 6.1038C12.7935 5.9787 12.713 5.69563 12.8386 5.47138C12.9637 5.24712 13.2471 5.16609 13.4723 5.29161C14.0616 5.61939 14.517 6.65923 14.7941 7.46868C14.947 6.72278 14.6708 5.61805 14.4092 4.74798C14.3355 4.50215 14.4752 4.24289 14.7218 4.16916C14.9688 4.09562 15.2282 4.23517 15.3019 4.48105C15.6171 5.53018 16.3561 7.98758 14.8805 8.93528C14.8046 8.98432 14.7167 9.00929 14.6285 9.00929Z" fill="black"/>
<path d="M4.06299 9.14249C3.90146 9.14249 3.75088 9.05872 3.66581 8.92069C2.87232 7.62982 2.62614 6.41156 2.93461 5.29976C3.26266 4.11553 4.13399 3.39803 4.57758 3.0986C4.58849 2.07852 5.30919 1.08545 6.48808 0.505234C8.18425 -0.329874 10.8814 -0.331687 13.4816 2.06946L14.3894 1.37051C14.5873 1.21868 14.8689 1.24909 15.0295 1.43773C15.5546 2.05514 16.2066 3.59505 14.9126 5.00261C14.5982 5.34355 14.2228 5.63591 13.797 5.87179C11.9893 6.87235 8.68794 7.25778 5.92708 6.1026L4.47658 8.89164C4.39924 9.04059 4.24772 9.13612 4.07986 9.14226C4.07394 9.14249 4.06844 9.14249 4.06299 9.14249ZM8.72889 0.930598C8.03456 0.930598 7.41122 1.08768 6.90031 1.33899C5.96621 1.79908 5.42432 2.56381 5.51988 3.28772C5.54578 3.48134 5.44706 3.6704 5.27374 3.76073C5.26414 3.76575 4.15538 4.36544 3.83004 5.55716C3.65444 6.19953 3.73224 6.90865 4.06071 7.67273L5.30328 5.28363C5.41975 5.0603 5.69231 4.96923 5.92116 5.07978C8.38082 6.27651 11.628 6.00865 13.3447 5.05867C13.6837 4.87142 13.9799 4.64079 14.226 4.37363C14.9321 3.60551 14.7625 2.85278 14.555 2.41765L13.7333 3.05026C13.5476 3.1926 13.2855 3.17624 13.119 3.01097C11.5903 1.48538 10.0342 0.930598 8.72889 0.930598Z" fill="black"/>
</svg>
